<svg xmlns="http://www.w3.org/2000/svg" xmlns:xlink="http://www.w3.org/1999/xlink"><defs>
      <linearGradient id="paint0_linear_1_293" x1="19.774" y1="3.00672e-05" x2="105.785" y2="10.6444" gradientUnits="userSpaceOnUse">
        <stop stop-color="#ED0233"/>
        <stop offset="1" stop-color="#003EB7"/>
      </linearGradient>
      <linearGradient id="paint1_linear_1_293" x1="14" y1="49.52" x2="54.1858" y2="9.18415" gradientUnits="userSpaceOnUse">
        <stop stop-color="#003D85"/>
        <stop offset="0.885417" stop-color="#B80027"/>
      </linearGradient>
    </defs><symbol id="icon-close" viewBox="0 0 20 20"><g fill="none"><path d="M.293 18.291a1 1 0 101.414 1.414L10 11.413l8.292 8.292a1 1 0 101.414-1.414l-8.292-8.292 8.292-8.292A1 1 0 1018.291.293L9.999 8.585 1.707.293A1 1 0 10.293 1.707L8.585 10 .293 18.291z"/></g></symbol><symbol id="play-button">
  <symbol viewBox="0 0 100 100" id="play-btn">
    <circle cx="50" cy="50" r="49" stroke="url(#paint0_linear_1_293)" stroke-opacity="0.2" stroke-width="2"/>
    <circle cx="50" cy="50" r="36" fill="url(#paint1_linear_1_293)"/>
    <path d="M59 49.5L46.25 56.8612L46.25 42.1388L59 49.5Z" fill="white"/>
    
  </symbol>
</symbol><symbol id="ruble">
  <symbol viewBox="0 0 30 42" id="ruble-ico">
    <path fill-rule="evenodd" clip-rule="evenodd" d="M0 17H6V23H0V17Z" fill="#102654"/>
    <path fill-rule="evenodd" clip-rule="evenodd" d="M3.65854 28.3214V18H9.65854V28.3214H21V34.3214H9.65854V42H3.65854V34.3214H0V28.3214H3.65854Z" fill="#102654"/>
    <path fill-rule="evenodd" clip-rule="evenodd" d="M18.5 6H10V17H18.5C21.5376 17 24 14.5376 24 11.5C24 8.46243 21.5376 6 18.5 6ZM4 0V23H18.5C24.8513 23 30 17.8513 30 11.5C30 5.14873 24.8513 0 18.5 0H4Z" fill="#102654"/>
  </symbol>
</symbol></svg>